<svg width="67" height="11" viewBox="0 0 67 11" fill="none" xmlns="http://www.w3.org/2000/svg">
<path opacity="0.4" d="M46.3335 0.668945H60.3335C61.0418 0.668945 61.5433 0.669161 61.9351 0.701172C62.3209 0.732712 62.5566 0.792399 62.7417 0.886719C63.118 1.07845 63.424 1.38449 63.6157 1.76074C63.71 1.94586 63.7697 2.18158 63.8013 2.56738C63.8333 2.95918 63.8335 3.46063 63.8335 4.16895V6.66895C63.8335 7.37726 63.8333 7.87871 63.8013 8.27051C63.7697 8.65631 63.71 8.89204 63.6157 9.07715C63.424 9.4534 63.118 9.75944 62.7417 9.95117C62.5566 10.0455 62.3209 10.1052 61.9351 10.1367C61.5433 10.1687 61.0418 10.1689 60.3335 10.1689H46.3335C45.6252 10.1689 45.1237 10.1687 44.7319 10.1367C44.3461 10.1052 44.1104 10.0455 43.9253 9.95117C43.549 9.75944 43.243 9.4534 43.0513 9.07715C42.9569 8.89204 42.8973 8.65631 42.8657 8.27051C42.8337 7.87871 42.8335 7.37726 42.8335 6.66895V4.16895C42.8335 3.46063 42.8337 2.95918 42.8657 2.56738C42.8973 2.18158 42.9569 1.94586 43.0513 1.76074C43.243 1.38449 43.549 1.07845 43.9253 0.886719C44.1104 0.792399 44.3461 0.732712 44.7319 0.701172C45.1237 0.669161 45.6252 0.668945 46.3335 0.668945Z" stroke="black"/>
<path opacity="0.4" d="M65.3335 3.6709C66.1957 3.89305 66.8333 4.67392 66.8335 5.60547C66.8335 6.53714 66.1958 7.31777 65.3335 7.54004V3.6709Z" fill="black"/>
<rect x="44.3335" y="2.16895" width="18" height="6.5" rx="1" fill="black"/>
<path d="M27.4541 8.40057C28.7297 7.32168 30.5985 7.32168 31.874 8.40057C31.9381 8.45859 31.9748 8.54074 31.9766 8.62713C31.9783 8.71359 31.9445 8.79702 31.8828 8.8576L29.8857 10.8732C29.8272 10.9324 29.7473 10.966 29.6641 10.966C29.5808 10.966 29.5009 10.9324 29.4424 10.8732L27.4443 8.8576C27.3827 8.797 27.3488 8.71351 27.3506 8.62713C27.3524 8.54068 27.39 8.45855 27.4541 8.40057ZM24.7891 5.71111C27.5372 3.15507 31.7929 3.15512 34.541 5.71111C34.603 5.77097 34.6387 5.85351 34.6397 5.93963C34.6405 6.02581 34.6066 6.10892 34.5459 6.1701L33.3916 7.33709C33.2726 7.45619 33.0801 7.45885 32.958 7.34295C32.0556 6.52577 30.8815 6.07337 29.6641 6.07342C28.4474 6.07392 27.2739 6.52628 26.3721 7.34295C26.25 7.45877 26.0574 7.45617 25.9385 7.33709L24.7842 6.1701C24.7235 6.10903 24.6896 6.02572 24.6904 5.93963C24.6914 5.8535 24.7271 5.77095 24.7891 5.71111ZM22.124 3.02947C26.3391 -1.0097 32.9891 -1.00995 37.2041 3.02947C37.265 3.08942 37.2992 3.17156 37.2998 3.25701C37.3003 3.34257 37.2663 3.42481 37.2061 3.48553L36.0498 4.65252C35.9307 4.77199 35.738 4.77324 35.6172 4.65545C34.0113 3.12872 31.8799 2.27764 29.6641 2.27752C27.448 2.27751 25.3161 3.12856 23.71 4.65545C23.5892 4.77344 23.3964 4.77222 23.2774 4.65252L22.1211 3.48553C22.0608 3.42476 22.0268 3.34259 22.0274 3.25701C22.028 3.1715 22.063 3.08939 22.124 3.02947Z" fill="black"/>
<path d="M2 7.00293C2.55228 7.00293 3 7.45064 3 8.00293V10.0029C2.99982 10.5551 2.55218 11.0029 2 11.0029H1C0.447824 11.0029 0.000175969 10.5551 0 10.0029V8.00293C0 7.45064 0.447715 7.00293 1 7.00293H2ZM6.66699 5.00293C7.21913 5.00311 7.66699 5.45075 7.66699 6.00293V10.0029C7.66682 10.555 7.21902 11.0028 6.66699 11.0029H5.66699C5.11482 11.0029 4.66717 10.5551 4.66699 10.0029V6.00293C4.66699 5.45064 5.11471 5.00293 5.66699 5.00293H6.66699ZM11.333 2.66895C11.8852 2.66895 12.3328 3.11681 12.333 3.66895V10.0029C12.3328 10.5551 11.8852 11.0029 11.333 11.0029H10.333C9.78098 11.0028 9.33318 10.555 9.33301 10.0029V3.66895C9.33318 3.11692 9.78098 2.66912 10.333 2.66895H11.333ZM16 0.335938C16.5523 0.335937 17 0.783653 17 1.33594V10.0029C16.9998 10.5551 16.5522 11.0029 16 11.0029H15C14.4478 11.0029 14.0002 10.5551 14 10.0029V1.33594C14 0.783653 14.4477 0.335938 15 0.335938H16Z" fill="black"/>
</svg>
