<svg width="24" height="24" viewBox="0 0 24 24" fill="none" xmlns="http://www.w3.org/2000/svg">
<path d="M19 3C20.1046 3 21 3.89543 21 5V19C21 20.1046 20.1046 21 19 21H5L4.7959 20.9893C3.78722 20.887 3 20.0357 3 19V5C3 3.89543 3.89543 3 5 3H19ZM5.5 4.5C4.94772 4.5 4.5 4.94772 4.5 5.5V18.5C4.5 19.0523 4.94772 19.5 5.5 19.5H18.5C19.0523 19.5 19.5 19.0523 19.5 18.5V5.5C19.5 4.94772 19.0523 4.5 18.5 4.5H5.5ZM16 13C17.1046 13 18 13.8954 18 15V16C18 17.1046 17.1046 18 16 18H8C6.89543 18 6 17.1046 6 16V15C6 13.8954 6.89543 13 8 13H16ZM8 14.5C7.72386 14.5 7.5 14.7239 7.5 15V16C7.5 16.2761 7.72386 16.5 8 16.5H16C16.2761 16.5 16.5 16.2761 16.5 16V15C16.5 14.7239 16.2761 14.5 16 14.5H8ZM17.25 9.5C17.6642 9.5 18 9.83579 18 10.25C18 10.6642 17.6642 11 17.25 11H6.75C6.33579 11 6 10.6642 6 10.25C6 9.83579 6.33579 9.5 6.75 9.5H17.25ZM13.25 6C13.6642 6 14 6.33579 14 6.75C14 7.16421 13.6642 7.5 13.25 7.5H6.75C6.33579 7.5 6 7.16421 6 6.75C6 6.33579 6.33579 6 6.75 6H13.25Z" fill="#6E6D6D"/>
</svg>
