<svg width="24" height="24" viewBox="0 0 24 24" fill="none" xmlns="http://www.w3.org/2000/svg">
<path fill-rule="evenodd" clip-rule="evenodd" d="M10.205 3.54115C11.2348 2.65857 12.7542 2.65856 13.7841 3.54115L15.2499 4.79799C15.252 4.36664 15.3805 3.94657 15.6229 3.61635C15.8672 3.28384 16.2668 3.00029 16.7772 3.00013H18.2216C18.7322 3.00013 19.1315 3.28375 19.3758 3.61635C19.6206 3.94943 19.7499 4.37336 19.7499 4.80873V8.65443L21.4833 10.1388C21.7977 10.4083 21.8337 10.8819 21.5643 11.1964C21.3581 11.4371 21.0324 11.5156 20.7499 11.4181V19.0675C20.7499 20.6347 19.3425 21.7501 17.8094 21.7501H14.2001C13.6479 21.7501 13.2002 21.3023 13.2001 20.7501V16.5001H10.7997V20.7501C10.7995 21.3023 10.3519 21.7501 9.79968 21.7501H6.1903C4.65725 21.7501 3.24987 20.6347 3.24987 19.0675V11.4142C2.96514 11.517 2.63434 11.4399 2.42565 11.1964C2.15634 10.882 2.19256 10.4093 2.50671 10.1398L10.205 3.54115ZM12.8075 4.67982C12.3395 4.27905 11.6495 4.27908 11.1815 4.67982L4.74987 10.1925V19.0675C4.74987 19.635 5.30328 20.2501 6.1903 20.2501H9.29968V16.0001C9.29968 15.4479 9.74746 15.0002 10.2997 15.0001H13.7001C14.2522 15.0003 14.7001 15.4479 14.7001 16.0001V20.2501H17.8094C18.6965 20.2501 19.2499 19.635 19.2499 19.0675V10.2013L12.8075 4.67982ZM16.8348 4.50013L16.8319 4.50404C16.7951 4.55423 16.7499 4.65982 16.7499 4.80873V6.08314L18.2499 7.3683V4.80873C18.2499 4.65987 18.2047 4.55426 18.1678 4.50404L18.1639 4.50013H16.8348Z" fill="#009B3A"/>
</svg>
