<svg preserveAspectRatio="none" width="100%" height="100%" overflow="visible" style="display: block;" viewBox="0 0 8.92446 8.92372" fill="none" xmlns="http://www.w3.org/2000/svg">
<path id="union" d="M7.64442 0.21967C7.93731 -0.0732233 8.41207 -0.0732233 8.70497 0.21967C8.99748 0.512594 8.99773 0.987449 8.70497 1.28022L5.52235 4.46186L8.70497 7.6435C8.99774 7.93627 8.99751 8.41112 8.70497 8.70404C8.41207 8.99694 7.93731 8.99694 7.64442 8.70404L4.4618 5.5224L1.28016 8.70404C0.987268 8.99694 0.512508 8.99694 0.219614 8.70404C-0.0731678 8.41114 -0.0732418 7.93635 0.219614 7.6435L3.40125 4.46186L0.219614 1.28022C-0.073233 0.987369 -0.0731414 0.512574 0.219614 0.21967C0.512508 -0.0732233 0.987268 -0.0732233 1.28016 0.21967L4.4618 3.40131L7.64442 0.21967Z" fill="var(--fill-0, #212121)"/>
</svg>
