<svg preserveAspectRatio="none" width="100%" height="100%" overflow="visible" style="display: block;" viewBox="0 0 18 20" fill="none" xmlns="http://www.w3.org/2000/svg">
<g id="icon">
<path d="M5 12.5C5.55229 12.5 6 12.0523 6 11.5C6 10.9477 5.55229 10.5 5 10.5C4.44772 10.5 4 10.9477 4 11.5C4 12.0523 4.44772 12.5 5 12.5Z" fill="var(--fill-0, black)"/>
<path d="M6 15C6 15.5523 5.55229 16 5 16C4.44772 16 4 15.5523 4 15C4 14.4477 4.44772 14 5 14C5.55229 14 6 14.4477 6 15Z" fill="var(--fill-0, black)"/>
<path d="M10 11.5C10 12.0523 9.55229 12.5 9 12.5C8.44771 12.5 8 12.0523 8 11.5C8 10.9477 8.44771 10.5 9 10.5C9.55229 10.5 10 10.9477 10 11.5Z" fill="var(--fill-0, black)"/>
<path d="M10 15C10 15.5523 9.55229 16 9 16C8.44771 16 8 15.5523 8 15C8 14.4477 8.44771 14 9 14C9.55229 14 10 14.4477 10 15Z" fill="var(--fill-0, black)"/>
<path d="M14 11.5C14 12.0523 13.5523 12.5 13 12.5C12.4477 12.5 12 12.0523 12 11.5C12 10.9477 12.4477 10.5 13 10.5C13.5523 10.5 14 10.9477 14 11.5Z" fill="var(--fill-0, black)"/>
<path fill-rule="evenodd" clip-rule="evenodd" d="M3.5 0.75C3.5 0.335786 3.83579 0 4.25 0C4.66421 0 5 0.335786 5 0.75V2H13V0.75C13 0.335786 13.3358 0 13.75 0C14.1642 0 14.5 0.335786 14.5 0.75V2H16C17.1046 2 18 2.89543 18 4V18C18 19.1046 17.1046 20 16 20H2C0.895431 20 0 19.1046 0 18V4C0 2.89543 0.895431 2 2 2H3.5V0.75ZM1.5 8H16.5V18C16.5 18.2761 16.2761 18.5 16 18.5H2C1.72386 18.5 1.5 18.2761 1.5 18V8ZM1.5 6.5H16.5V4C16.5 3.72386 16.2761 3.5 16 3.5H2C1.72386 3.5 1.5 3.72386 1.5 4V6.5Z" fill="var(--fill-0, black)"/>
</g>
</svg>
