<svg preserveAspectRatio="none" width="100%" height="100%" overflow="visible" style="display: block;" viewBox="0 0 8.92462 8.92462" fill="none" xmlns="http://www.w3.org/2000/svg">
<path id="icon" d="M0.21967 0.21967C-0.0732233 0.512563 -0.0732233 0.987437 0.21967 1.28033L3.40165 4.46231L0.21967 7.64429C-0.0732231 7.93718 -0.0732231 8.41206 0.21967 8.70495C0.512563 8.99784 0.987437 8.99784 1.28033 8.70495L4.46231 5.52297L7.64429 8.70495C7.93718 8.99784 8.41206 8.99784 8.70495 8.70495C8.99784 8.41206 8.99784 7.93718 8.70495 7.64429L5.52297 4.46231L8.70495 1.28033C8.99784 0.987437 8.99784 0.512564 8.70495 0.21967C8.41206 -0.0732229 7.93718 -0.0732229 7.64429 0.21967L4.46231 3.40165L1.28033 0.21967C0.987437 -0.0732233 0.512563 -0.0732233 0.21967 0.21967Z" fill="var(--fill-0, black)"/>
</svg>
