<svg preserveAspectRatio="none" width="100%" height="100%" overflow="visible" style="display: block;" viewBox="0 0 28.0311 27.9997" fill="none" xmlns="http://www.w3.org/2000/svg">
<g id="5">
<g id="Rectangle 1419">
</g>
<path id="Subtract" d="M26.6282 9.28802C26.5179 7.84506 25.4153 5.99512 24.3127 5.10714C23.0728 4.1984 21.7844 3.3585 20.4535 2.59122C19.1326 1.8031 17.7708 1.08676 16.3738 0.445284C15.6276 0.138845 14.8274 -0.0121893 14.0215 0.00129731C13.2154 -0.0157526 12.4145 0.135416 11.6693 0.445284C10.2725 1.08722 8.91069 1.80354 7.58958 2.59122C5.45784 3.88618 3.7304 5.10714 3.7304 5.10714C2.87512 5.8277 2.21542 6.74332 1.7996 7.76812C1.67395 8.07782 1.91384 8.3999 2.24806 8.3999H3.54814C3.91951 8.3999 4.2542 8.18976 4.46137 7.88154C4.75426 7.44578 5.10905 7.04998 5.51799 6.70783C5.51799 6.70783 6.9443 5.70664 8.70443 4.64477C9.79525 3.99888 10.9197 3.41149 12.073 2.8851C12.6883 2.63101 13.3496 2.50705 14.0152 2.52103C14.6805 2.50998 15.3412 2.63382 15.9574 2.8851C17.1108 3.41112 18.2353 3.99851 19.3259 4.64477C20.4248 5.27394 21.4886 5.96266 22.5124 6.70783C23.4228 7.43597 24.3332 8.95292 24.4242 10.1361C24.4242 10.1361 24.6367 11.8958 24.667 13.9801C24.6651 15.2673 24.5942 16.5535 24.4546 17.8332C24.2428 19.173 23.5529 20.3909 22.5124 21.2615C22.5124 21.2615 21.086 22.293 19.3259 23.3549C18.2351 24.0008 17.1107 24.5882 15.9574 25.1146C15.3421 25.3686 14.6808 25.4926 14.0152 25.4786C13.3504 25.4926 12.6898 25.3718 12.073 25.1237C10.9195 24.5976 9.79505 24.0102 8.70443 23.364C6.9443 22.3325 5.51799 21.2706 5.51799 21.2706C5.15793 20.9826 4.79787 20.5713 4.48662 20.106C4.28354 19.8024 3.95233 19.5998 3.5871 19.5998H2.26078C1.92228 19.5998 1.6834 19.929 1.81934 20.239C2.27215 21.2716 3.00127 22.2794 3.7304 22.8666C3.7304 22.8666 5.45784 24.1616 7.58958 25.4195C8.91044 26.2076 10.2723 26.924 11.6693 27.5655C12.4163 27.8681 13.2165 28.0154 14.0215 27.9984C14.8277 28.0154 15.6286 27.8642 16.3738 27.5544C17.7706 26.9124 19.1324 26.1961 20.4535 25.4084C22.5852 24.1135 24.3127 22.8555 24.3127 22.8555C25.5729 21.7938 26.4085 20.3086 26.665 18.6746C26.8341 17.1141 26.92 15.5456 26.9222 13.9758C26.8855 11.434 26.6282 9.28802 26.6282 9.28802Z" fill="url(#paint0_linear_2028_3239)"/>
<g id="1">
<path id="Rectangle 1486" d="M1.12066 10.9206C1.12066 10.6113 1.37165 10.3606 1.68128 10.3606H10.3709C10.6805 10.3606 10.9315 10.6113 10.9315 10.9206V12.6006C10.9315 12.9098 10.6805 13.1606 10.3709 13.1606H1.12066V10.9206Z" fill="var(--fill-0, #0066B3)"/>
<path id="Rectangle 1487" d="M1.12066 14.8399H18.7803C19.0899 14.8399 19.3409 15.0907 19.3409 15.3999V17.0799C19.3409 17.3892 19.0899 17.6399 18.7803 17.6399H1.68128C1.37165 17.6399 1.12066 17.3892 1.12066 17.0799V14.8399Z" fill="var(--fill-0, #EE2F53)"/>
</g>
</g>
<defs>
<linearGradient id="paint0_linear_2028_3239" x1="14.2494" y1="0" x2="14.2494" y2="27.9997" gradientUnits="userSpaceOnUse">
<stop stop-color="#0066B3"/>
<stop offset="0.354167" stop-color="#0066B3"/>
<stop offset="0.6875" stop-color="#EE2F53"/>
<stop offset="1" stop-color="#EE2F53"/>
</linearGradient>
</defs>
</svg>
