<svg preserveAspectRatio="none" width="100%" height="100%" overflow="visible" style="display: block;" viewBox="0 0 21.5532 7.50006" fill="none" xmlns="http://www.w3.org/2000/svg">
<g id="Group">
<path id="Vector" d="M12.704 2.48889L11.019 2.79725C10.7436 2.85249 10.5565 3.11666 10.6004 3.39212C10.6557 3.66734 10.9198 3.85467 11.1953 3.81047L12.8802 3.50211C13.2767 3.42502 13.5299 3.66734 13.629 3.92071C13.7282 4.17382 13.7061 4.51533 13.3646 4.73555L10.8869 6.34339C10.6557 6.49757 10.3802 6.49757 10.1379 6.37654C10.0204 6.31379 9.92232 6.22004 9.85436 6.10546C9.7864 5.99089 9.75115 5.85988 9.75244 5.72667V1.77349C9.75244 1.11257 9.41118 0.540048 8.82735 0.220638C8.25483 -0.099029 7.57233 -0.0663942 7.02139 0.286422L0.788141 4.32774C0.0832805 4.77949 -0.181138 5.60538 0.127222 6.38733C0.435583 7.16928 1.19543 7.58763 2.02158 7.44449L7.46183 6.46468C7.73704 6.40943 7.92437 6.14527 7.88043 5.8698C7.82518 5.59459 7.56102 5.40726 7.28555 5.45146L1.8453 6.43153C1.43775 6.50862 1.19543 6.2663 1.0965 6.01319C0.997311 5.75982 1.01941 5.41831 1.36066 5.19809L7.59391 1.15677C7.82518 1.00259 8.10065 1.00259 8.34297 1.12362C8.46048 1.18637 8.55854 1.28012 8.6265 1.3947C8.69445 1.50927 8.72971 1.64028 8.72842 1.77349V5.72693C8.72842 6.38785 9.06967 6.96037 9.6535 7.27978C9.91375 7.42181 10.205 7.49746 10.5015 7.5C10.8317 7.5 11.1622 7.40107 11.4595 7.21374L13.9374 5.6059C14.6423 5.1544 14.9064 4.32826 14.5981 3.54656C14.2897 2.76461 13.5299 2.34576 12.704 2.48889ZM21.4262 3.54631C21.1178 2.76435 20.358 2.34576 19.5318 2.48889L17.8469 2.79725C17.5717 2.85249 17.3844 3.11666 17.4286 3.39212C17.4835 3.66734 17.748 3.85467 18.0232 3.81047L19.7081 3.50211C20.1046 3.42502 20.358 3.66734 20.4569 3.92071C20.5561 4.17382 20.534 4.51533 20.1927 4.73555L17.7148 6.34339C17.4835 6.49757 17.2083 6.49757 16.966 6.37654C16.8485 6.31379 16.7504 6.22004 16.6825 6.10546C16.6145 5.99089 16.5793 5.85988 16.5806 5.72667V0.517692C16.5806 0.231431 16.3493 0.000160304 16.0628 0.000160304C15.7765 0.000160304 15.5452 0.231431 15.5452 0.517692V5.72667C15.5452 6.38759 15.8868 6.96011 16.4703 7.27952C16.7306 7.42156 17.0218 7.4972 17.3183 7.49974C17.6488 7.49974 17.9792 7.40081 18.2765 7.21348L20.7545 5.60564C21.4701 5.1431 21.7345 4.31721 21.4262 3.54631Z" fill="var(--fill-0, white)"/>
</g>
</svg>
