<svg preserveAspectRatio="none" width="100%" height="100%" overflow="visible" style="display: block;" viewBox="0 0 21.5532 7.53494" fill="none" xmlns="http://www.w3.org/2000/svg">
<g id="Group">
<path id="Vector" d="M12.704 2.50046L11.019 2.81026C10.7436 2.86576 10.5565 3.13115 10.6004 3.4079C10.6557 3.68439 10.9198 3.87259 11.1953 3.82819L12.8802 3.5184C13.2767 3.44095 13.5299 3.68439 13.629 3.93894C13.7282 4.19323 13.7061 4.53633 13.3646 4.75757L10.8869 6.3729C10.6557 6.52779 10.3802 6.52779 10.1379 6.4062C10.0204 6.34316 9.92232 6.24897 9.85436 6.13386C9.7864 6.01875 9.75115 5.88713 9.75244 5.75331V1.78174C9.75244 1.11775 9.41118 0.54256 8.82735 0.221664C8.25483 -0.0994896 7.57233 -0.066703 7.02139 0.287754L0.788141 4.34787C0.0832805 4.80172 -0.181138 5.63145 0.127222 6.41704C0.435583 7.20263 1.19543 7.62292 2.02158 7.47912L7.46183 6.49475C7.73704 6.43924 7.92437 6.17385 7.88043 5.8971C7.82518 5.62061 7.56102 5.43241 7.28555 5.47681L1.8453 6.46145C1.43775 6.53889 1.19543 6.29545 1.0965 6.04116C0.997311 5.78661 1.01941 5.44351 1.36066 5.22227L7.59391 1.16215C7.82518 1.00725 8.10065 1.00725 8.34297 1.12885C8.46048 1.19189 8.55854 1.28608 8.6265 1.40119C8.69445 1.51629 8.72971 1.64791 8.72842 1.78174V5.75356C8.72842 6.41756 9.06967 6.99274 9.6535 7.31364C9.91375 7.45633 10.205 7.53233 10.5015 7.53488C10.8317 7.53488 11.1622 7.43549 11.4595 7.24729L13.9374 5.63197C14.6423 5.17838 14.9064 4.34839 14.5981 3.56306C14.2897 2.77747 13.5299 2.35667 12.704 2.50046ZM21.4262 3.5628C21.1178 2.77721 20.358 2.35667 19.5318 2.50046L17.8469 2.81026C17.5717 2.86576 17.3844 3.13115 17.4286 3.4079C17.4835 3.68439 17.748 3.87259 18.0232 3.82819L19.7081 3.5184C20.1046 3.44095 20.358 3.68439 20.4569 3.93894C20.5561 4.19323 20.534 4.53633 20.1927 4.75757L17.7148 6.3729C17.4835 6.52779 17.2083 6.52779 16.966 6.4062C16.8485 6.34316 16.7504 6.24897 16.6825 6.13386C16.6145 6.01875 16.5793 5.88713 16.5806 5.75331V0.5201C16.5806 0.232507 16.3493 0.000161047 16.0628 0.000161047C15.7765 0.000161047 15.5452 0.232507 15.5452 0.5201V5.75331C15.5452 6.4173 15.8868 6.99248 16.4703 7.31338C16.7306 7.45608 17.0218 7.53207 17.3183 7.53463C17.6488 7.53463 17.9792 7.43523 18.2765 7.24703L20.7545 5.63171C21.4701 5.16702 21.7345 4.33729 21.4262 3.5628Z" fill="var(--fill-0, white)"/>
</g>
</svg>
