<svg preserveAspectRatio="none" width="100%" height="100%" overflow="visible" style="display: block;" viewBox="0 0 63.3333 69.1667" fill="none" xmlns="http://www.w3.org/2000/svg">
<g id="Pin" filter="url(#filter0_d_2041_8634)">
<path d="M31.6787 13.3333C29.707 13.3322 27.7544 13.7328 25.9326 14.512C24.1108 15.2912 22.4554 16.4339 21.0612 17.8746C19.667 19.3154 18.5613 21.0259 17.8072 22.9086C17.0532 24.7912 16.6656 26.809 16.6667 28.8465C16.6665 32.1285 17.6742 35.3258 19.5446 37.9783C21.415 40.6308 24.0517 42.6015 27.075 43.6067C27.9423 43.9088 28.7208 44.4343 29.3372 45.1334C29.9535 45.8326 30.3874 46.6825 30.5978 47.603L30.806 48.4303C30.845 48.6377 30.9526 48.8246 31.1104 48.9589C31.2682 49.0933 31.4662 49.1667 31.6707 49.1667C31.8737 49.1648 32.0699 49.0905 32.226 48.9563C32.3821 48.8221 32.4886 48.6363 32.5274 48.4303L32.7355 47.603C32.946 46.6825 33.3798 45.8326 33.9962 45.1334C34.6125 44.4343 35.391 43.9088 36.2583 43.6067C39.2817 42.6015 41.9183 40.6308 43.7887 37.9783C45.6591 35.3258 46.6668 32.1285 46.6667 28.8465C46.6667 24.7364 45.0883 20.7944 42.2782 17.8858C39.4681 14.9772 35.6559 13.3399 31.6787 13.3333Z" fill="var(--fill-0, #009B3A)"/>
</g>
<defs>
<filter id="filter0_d_2041_8634" x="0" y="2.38418e-07" width="63.3333" height="69.1667" filterUnits="userSpaceOnUse" color-interpolation-filters="sRGB">
<feFlood flood-opacity="0" result="BackgroundImageFix"/>
<feColorMatrix in="SourceAlpha" type="matrix" values="0 0 0 0 0 0 0 0 0 0 0 0 0 0 0 0 0 0 127 0" result="hardAlpha"/>
<feOffset dy="3.33333"/>
<feGaussianBlur stdDeviation="8.33333"/>
<feColorMatrix type="matrix" values="0 0 0 0 0 0 0 0 0 0 0 0 0 0 0 0 0 0 0.06 0"/>
<feBlend mode="normal" in2="BackgroundImageFix" result="effect1_dropShadow_2041_8634"/>
<feBlend mode="normal" in="SourceGraphic" in2="effect1_dropShadow_2041_8634" result="shape"/>
</filter>
</defs>
</svg>
