<svg width="194" height="34" viewBox="0 0 194 34" fill="none" xmlns="http://www.w3.org/2000/svg">
  <g clip-path="url(#clip0_2190_3850)">
    <path d="M112.175 25.3219H106.818C106.639 25.3219 106.508 25.1492 106.557 24.9766C107.453 21.9497 108.386 18.5234 109.032 14.725C109.695 10.797 110.042 7.17651 110.188 3.94453C110.194 3.79886 110.313 3.68555 110.46 3.68555H126.381C126.531 3.68555 126.653 3.80634 126.653 3.95534V25.0522C126.653 25.2012 126.531 25.3219 126.381 25.3219H121.164C121.014 25.3219 120.893 25.2012 120.893 25.0522V8.75742H115.656C115.463 11.1621 115.139 13.7461 114.607 16.4731C113.988 19.6674 113.255 22.5648 112.43 25.1384C112.398 25.2464 112.289 25.3219 112.175 25.3219Z" fill="#EE2F53"/>
    <path d="M0.5 3.95534C0.5 3.80634 0.621644 3.68555 0.7717 3.68555H16.1528C16.3448 3.68555 16.4748 3.88202 16.4002 4.05962L14.4955 8.59266C14.4452 8.71238 14.3301 8.76686 14.2209 8.75607C14.2119 8.75697 14.2028 8.75742 14.1937 8.75742H6.26004V25.0522C6.26004 25.2012 6.13839 25.3219 5.98833 25.3219H0.7717C0.621644 25.3219 0.5 25.2012 0.5 25.0522V3.95534Z" fill="#0066B3"/>
    <path d="M155.09 3.95534C155.09 3.80634 155.212 3.68555 155.362 3.68555H170.743C170.934 3.68555 171.065 3.88202 170.99 4.05962L169.085 8.59266C169.035 8.71238 168.92 8.76686 168.811 8.75607C168.802 8.75697 168.793 8.75742 168.783 8.75742H160.85V25.0522C160.85 25.2012 160.729 25.3219 160.578 25.3219H155.362C155.212 25.3219 155.09 25.2012 155.09 25.0522V3.95534Z" fill="#EE2F53"/>
    <path d="M62.753 3.68555C62.5645 3.68555 62.4334 3.86972 62.4982 4.0436L70.4241 25.3254C69.3056 27.6603 68.0631 30.1179 66.6419 32.8573C66.5489 33.0366 66.6785 33.2534 66.8821 33.2534H72.5205C72.6229 33.2534 72.7174 33.1952 72.7636 33.1046C76.9358 24.6745 80.0061 17.2016 84.2037 4.04205C84.261 3.86808 84.1313 3.68555 83.9467 3.68555H78.7096C78.588 3.68555 78.4806 3.76772 78.4475 3.88352C76.8312 9.50936 75.3413 13.9129 73.6141 18.1567L68.2896 3.86048C68.2505 3.75542 68.1487 3.68555 68.035 3.68555H62.753Z" fill="#EE2F53"/>
    <path d="M130.182 3.68555C129.993 3.68555 129.862 3.86972 129.927 4.0436L137.853 25.3254C136.735 27.6603 135.492 30.1179 134.071 32.8573C133.978 33.0366 134.107 33.2534 134.311 33.2534H139.949C140.052 33.2534 140.146 33.1952 140.192 33.1046C144.365 24.6745 147.435 17.2016 151.633 4.04205C151.69 3.86808 151.56 3.68555 151.375 3.68555H146.138C146.017 3.68555 145.909 3.76772 145.876 3.88352C144.26 9.50936 142.77 13.9129 141.043 18.1567L135.718 3.86048C135.679 3.75542 135.577 3.68555 135.464 3.68555H130.182Z" fill="#EE2F53"/>
    <path d="M102.526 20.2151C102.499 20.1457 102.446 20.0871 102.375 20.0551C102.305 20.0231 102.224 20.0231 102.154 20.0445C100.903 20.503 98.5579 20.8761 96.9241 20.8761C93.349 20.8761 91.645 19.9217 91.645 14.4999C91.645 10.1655 92.1682 8.12359 96.9241 8.12359C98.2721 8.12359 99.523 8.31552 101.114 8.77401C101.243 8.81134 101.383 8.75269 101.443 8.6354C102.036 7.53182 102.753 6.183 103.562 4.53027C103.6 4.45564 103.6 4.37033 103.567 4.2957C103.535 4.22106 103.47 4.16242 103.389 4.13576C101.297 3.47468 98.8005 3.09082 96.5519 3.09082C89.0623 3.09082 85.7246 6.58284 85.7246 14.4199C85.7246 22.369 89.0623 25.9142 96.5519 25.9142C98.4284 25.9142 102.127 25.5251 103.912 24.8213C104.052 24.7627 104.128 24.6028 104.074 24.4641L102.526 20.2151Z" fill="#EE2F53"/>
    <path d="M58.7033 20.2151C58.6762 20.1457 58.6223 20.0871 58.5523 20.0551C58.4821 20.0231 58.4013 20.0231 58.3311 20.0445C57.0802 20.503 54.7346 20.8761 53.1008 20.8761C49.5258 20.8761 47.822 19.9217 47.822 14.4999C47.822 10.1655 48.3449 8.12359 53.1008 8.12359C54.4489 8.12359 55.6998 8.31552 57.2905 8.77401C57.4198 8.81134 57.56 8.75269 57.6193 8.6354C58.2125 7.53182 58.9297 6.183 59.7385 4.53027C59.7763 4.45564 59.7763 4.37033 59.7439 4.2957C59.7115 4.22106 59.6468 4.16242 59.566 4.13576C57.4738 3.47468 54.9773 3.09082 52.7287 3.09082C45.239 3.09082 41.9014 6.58284 41.9014 14.4199C41.9014 22.369 45.239 25.9142 52.7287 25.9142C54.6051 25.9142 58.3042 25.5251 60.089 24.8213C60.2292 24.7627 60.3047 24.6028 60.2507 24.4641L58.7033 20.2151Z" fill="#0066B3"/>
    <path d="M27.8627 3.09082C20.5406 3.09082 17.6895 6.26658 17.6895 14.419C17.6895 22.6954 20.5406 25.9142 27.8627 25.9142C35.2436 25.9142 38.1213 22.6954 38.1213 14.419C38.1213 6.26658 35.2436 3.09082 27.8627 3.09082ZM27.8627 21.1641C24.5268 21.1641 23.4875 20.2475 23.4875 14.4998C23.4875 8.38015 24.6227 7.83558 27.8627 7.83558C31.1668 7.83558 32.3232 8.38015 32.3232 14.4998C32.3232 20.2475 31.2628 21.1641 27.8627 21.1641Z" fill="#0066B3"/>
    <path d="M192.581 3.68555H187.369C187.216 3.68555 187.096 3.80399 187.096 3.95475V20.2571C185.966 20.5693 184.838 20.72 183.566 20.72C180.405 20.72 179.488 19.837 179.369 16.1545V3.95475C179.369 3.80399 179.249 3.68555 179.096 3.68555H173.884C173.731 3.68555 173.611 3.80399 173.611 3.95475V3.98705C173.611 3.98705 173.611 16.2568 173.618 16.2729C173.742 23.202 176.273 25.9155 182.524 25.9155C186.173 25.9155 190.247 24.9948 192.664 24.0796C192.777 24.0419 192.848 23.9342 192.848 23.8158V3.98705V3.95475C192.854 3.80399 192.734 3.68555 192.581 3.68555Z" fill="#EE2F53"/>
  </g>
  <defs>
    <clipPath id="clip0_2190_3850">
      <rect width="193" height="34" fill="white" transform="translate(0.5)"/>
    </clipPath>
  </defs>
</svg>
